<svg xmlns="http://www.w3.org/2000/svg" xmlns:xlink="http://www.w3.org/1999/xlink" width="86" height="10" viewBox="0 0 86 10"><defs><style>.a{fill:#dc0005;}.b{clip-path:url(#a);}</style><clipPath id="a"><path class="a" d="M81.828,10,78.059,6.385H76.074V10H73.015V0h3.059V3.529h1.6L81.171,0h3.984L80.366,4.642,86,10Zm-15.2,0L61.3,3.028V10H58.3V0h4.427l5.326,6.971V0h3V10ZM53.94,10l-.792-1.486H46.736L45.945,10h-3.38L48.011,0h3.931l5.446,10ZM29.552,10V0h9.162c1.851,0,2.964,1.028,2.964,2.671a2.241,2.241,0,0,1-1.127,2.1,2.33,2.33,0,0,1,1.69,2.443C42.242,9.057,40.9,10,39.022,10Zm-5,0L20.779,6.385H18.794V10H15.735V0h3.058V3.529h1.6L23.891,0h3.984L23.086,4.642,28.72,10ZM11.376,10l-.792-1.486H4.172L3.38,10H0L5.446,0H9.377l5.446,10Z" transform="translate(0 0)"/></clipPath></defs><g transform="translate(0 0.001)"><path class="a" d="M81.828,10,78.059,6.386H76.074V10H73.015V0h3.059V3.529h1.6L81.171,0h3.984L80.366,4.643,86,10Zm-15.2,0L61.3,3.029V10H58.3V0h4.427l5.326,6.97V0h3V10Zm-9.244,0H53.939l-.79-1.487H46.736L45.946,10H42.565L48.01,0h3.931l5.445,10v0ZM49.941,2.514,48.01,6.143h3.876ZM29.552,10V0h9.162a3.175,3.175,0,0,1,2.176.72,2.556,2.556,0,0,1,.788,1.954,2.261,2.261,0,0,1-1.127,2.1,2.342,2.342,0,0,1,1.691,2.441,2.586,2.586,0,0,1-.9,2.084,3.611,3.611,0,0,1-2.314.7Zm3.006-2.4h5.553c.673,0,1.045-.284,1.045-.8S38.785,6,38.111,6H32.558Zm0-3.743H37.75c.63,0,.951-.239.951-.712S38.372,2.4,37.75,2.4H32.558ZM24.549,10,20.779,6.386H18.794V10H15.735V0h3.058V3.529h1.6L23.891,0h3.984L23.086,4.643,28.72,10Zm-9.728,0H11.374l-.79-1.487H4.172L3.382,10H0L5.445,0H9.377l5.444,10v0ZM7.376,2.514,5.445,6.143H9.322L7.377,2.514h0Z" transform="translate(0 0)"/></g></svg>